<svg width="660" height="366" viewBox="0 0 660 366" fill="none" xmlns="http://www.w3.org/2000/svg">
<path d="M559.158 240.56L559.836 240.565C566.795 240.661 572.214 242.243 575.93 245.47C579.794 248.825 581.647 253.807 581.647 260.221V264.463C581.647 268.003 580.786 270.843 578.889 272.794C576.987 274.75 574.211 275.641 570.75 275.641C567.374 275.641 564.668 275.092 562.779 273.851C560.817 272.562 559.854 270.603 559.854 268.138C559.854 263.137 558.472 259.561 555.873 257.217C553.253 254.856 549.226 253.588 543.607 253.588H524.379C518.846 253.588 514.883 254.79 512.311 257.019C509.766 259.225 508.415 262.584 508.415 267.291V337.977C508.415 342.589 509.742 345.877 512.24 348.036C514.765 350.219 518.658 351.397 524.097 351.397H544.172C549.6 351.397 553.483 350.153 556.008 347.842C558.517 345.547 559.854 342.04 559.854 337.129C559.854 334.935 560.748 333.066 562.458 331.57C564.245 330.006 567.098 329.343 570.75 329.343C574.182 329.343 576.942 330.125 578.847 331.867C580.769 333.624 581.647 336.197 581.647 339.391V344.198C581.647 350.612 579.794 355.594 575.93 358.949C572.094 362.281 566.443 363.859 559.158 363.859H508.263C501.236 363.859 495.78 362.151 492.085 358.557C488.386 354.959 486.623 349.637 486.623 342.784V262.201C486.623 255.163 488.407 249.702 492.151 246.008C495.892 242.318 501.42 240.56 508.545 240.56H559.158Z" fill="#F4F9FE" stroke="#F4F9FE" stroke-width="2"/>
<path d="M458.221 349.57C458.221 354.277 457.386 357.988 455.561 360.543C453.691 363.16 450.886 364.425 447.325 364.425C443.846 364.425 441.11 363.15 439.293 360.531C437.522 357.979 436.712 354.275 436.712 349.573L436.429 253.156V253.153C436.429 248.633 437.241 245.062 439.021 242.6C440.846 240.079 443.58 238.864 447.042 238.864C450.595 238.864 453.4 240.099 455.272 242.668C457.102 245.177 457.938 248.819 457.938 253.433L458.221 349.567V349.57Z" fill="#F4F9FE" stroke="#F4F9FE" stroke-width="2"/>
<path d="M395.656 240.56C399.481 240.56 402.504 241.056 404.604 242.159C405.668 242.718 406.521 243.446 407.104 244.364C407.689 245.286 407.967 246.343 407.967 247.498C407.967 248.544 407.672 249.499 407.063 250.32C406.464 251.129 405.602 251.754 404.55 252.227C402.469 253.163 399.47 253.588 395.656 253.588H349.568C344.463 253.588 340.812 254.952 338.424 257.511C336.023 260.084 334.734 264.035 334.734 269.552V276.621C334.734 282.435 336.007 286.609 338.376 289.323C340.722 292.011 344.295 293.434 349.286 293.434H382.65C390.858 293.434 397.198 295.028 401.502 298.381C405.853 301.772 407.967 306.834 407.967 313.379V343.915C407.967 350.447 405.933 355.506 401.728 358.901C397.563 362.263 391.429 363.859 383.498 363.859H324.97C321.245 363.859 318.304 363.41 316.261 362.415C315.226 361.91 314.386 361.249 313.807 360.402C313.222 359.548 312.942 358.563 312.942 357.487C312.942 356.441 313.238 355.486 313.846 354.665C314.445 353.855 315.307 353.231 316.359 352.757C318.44 351.821 321.438 351.397 325.252 351.397H371.905C376.845 351.397 380.366 350.185 382.656 347.937C384.943 345.692 386.174 342.248 386.174 337.412V324.123C386.174 317.926 384.852 313.465 382.383 310.562C379.94 307.691 376.229 306.178 371.058 306.178H338.259C330.051 306.178 323.711 304.584 319.407 301.231C315.056 297.841 312.942 292.779 312.942 286.234V261.07C312.942 254.367 314.917 249.171 319.02 245.676C323.091 242.208 329.092 240.56 336.845 240.56H395.656Z" fill="#F4F9FE" stroke="#F4F9FE" stroke-width="2"/>
<path d="M275.846 239.145C279.408 239.145 282.213 240.41 284.083 243.028C285.908 245.583 286.743 249.293 286.743 253.999V342.499C286.743 349.479 284.724 354.886 280.531 358.524C276.364 362.138 270.219 363.858 262.275 363.858H215.622C207.772 363.858 201.697 362.162 197.578 358.595C193.431 355.005 191.436 349.669 191.436 342.783V253.999C191.436 249.288 192.297 245.574 194.175 243.017C196.096 240.402 198.97 239.145 202.615 239.145C206.201 239.145 209.007 240.5 210.867 243.262C212.679 245.954 213.511 249.866 213.511 254.848V337.411C213.511 342.217 214.866 345.649 217.415 347.9C219.987 350.172 223.947 351.396 229.476 351.396H249.268C254.601 351.396 258.415 350.176 260.893 347.911C263.354 345.663 264.667 342.227 264.667 337.411V337.407L264.951 254.844C264.951 249.864 265.784 245.953 267.595 243.262C269.454 240.5 272.261 239.145 275.846 239.145Z" fill="#F4F9FE" stroke="#F4F9FE" stroke-width="2"/>
<path d="M74.5039 239.711C81.9108 239.711 88.5825 244.256 94.5527 252.881L95.1279 253.729L95.1426 253.749L95.1553 253.772L108.441 276.093L121.999 253.764L122.005 253.755L122.01 253.746C124.692 249.532 127.588 246.144 130.706 243.611L130.717 243.602L130.729 243.593C134.113 241.005 138.003 239.711 142.363 239.711H148.301C153.902 239.711 158.257 241.518 161.177 245.256C164.059 248.948 165.418 254.369 165.418 261.352V349.003C165.418 353.619 164.582 357.262 162.752 359.772C160.879 362.34 158.075 363.576 154.521 363.576C150.968 363.576 148.165 362.34 146.292 359.772C144.462 357.262 143.625 353.619 143.625 349.003V261.753C143.265 260.254 142.859 259.216 142.442 258.573C142.02 257.92 141.7 257.828 141.516 257.828C140.862 257.828 139.921 258.229 138.661 259.399C137.426 260.545 136.017 262.308 134.436 264.727C129.384 272.586 125.656 280.142 123.237 287.398L123.234 287.406C120.811 294.49 119.612 300.977 119.612 306.874C119.612 311.948 118.78 315.927 116.973 318.664C115.117 321.474 112.311 322.86 108.717 322.86C105.204 322.86 102.468 321.464 100.665 318.654C98.9107 315.919 98.1035 311.944 98.1035 306.874C98.1035 300.998 96.7252 294.526 93.9316 287.449L93.9258 287.435L93.9209 287.419C91.313 280.155 87.5831 272.594 82.7217 264.737C81.0583 262.336 79.5302 260.645 78.1455 259.607C76.7384 258.551 75.7848 258.012 75.2266 257.834C75.0317 257.85 74.8867 257.902 74.7715 257.975C74.6293 258.065 74.474 258.22 74.3271 258.497C74.0175 259.082 73.8077 260.088 73.8076 261.634V349.003C73.8076 353.623 72.946 357.271 71.0625 359.783C69.1384 362.348 66.2657 363.575 62.6289 363.576C59.0755 363.576 56.2712 362.34 54.3984 359.772C52.5685 357.262 51.7324 353.619 51.7324 349.003V261.352C51.7324 254.366 53.1152 248.942 56.0488 245.249C59.0174 241.513 63.4423 239.711 69.1318 239.711H74.5039Z" fill="#F4F9FE" stroke="#F4F9FE" stroke-width="2"/>
<path d="M645.863 95.4287C649.947 95.4287 653.324 96.7639 655.994 99.4343C658.665 102.105 660 105.56 660 109.802V209.47C660 213.554 658.665 217.01 655.994 219.838C653.324 222.508 649.947 223.843 645.863 223.843C641.778 223.843 638.401 222.508 635.731 219.838C633.06 217.01 631.725 213.554 631.725 209.47V197.925L636.909 200.045C636.909 202.087 635.809 204.601 633.61 207.585C631.411 210.413 628.426 213.24 624.656 216.068C620.887 218.895 616.41 221.33 611.226 223.372C606.199 225.257 600.701 226.2 594.732 226.2C583.894 226.2 574.076 223.451 565.279 217.953C556.483 212.298 549.493 204.601 544.309 194.862C539.282 184.965 536.769 173.656 536.769 160.932C536.769 148.051 539.282 136.741 544.309 127.002C549.493 117.106 556.404 109.409 565.044 103.911C573.683 98.2562 583.265 95.4287 593.79 95.4287C600.544 95.4287 606.749 96.4497 612.404 98.4918C618.059 100.534 622.929 103.126 627.013 106.267C631.254 109.409 634.474 112.629 636.673 115.928C639.03 119.07 640.208 121.74 640.208 123.939L631.725 127.002V109.802C631.725 105.718 633.06 102.34 635.731 99.6699C638.401 96.8424 641.778 95.4287 645.863 95.4287ZM598.267 200.281C605.178 200.281 611.226 198.553 616.41 195.097C621.593 191.641 625.599 186.929 628.426 180.96C631.411 174.991 632.903 168.315 632.903 160.932C632.903 153.392 631.411 146.637 628.426 140.668C625.599 134.699 621.593 129.987 616.41 126.531C611.226 123.075 605.178 121.347 598.267 121.347C591.512 121.347 585.543 123.075 580.359 126.531C575.176 129.987 571.091 134.699 568.107 140.668C565.279 146.637 563.866 153.392 563.866 160.932C563.866 168.315 565.279 174.991 568.107 180.96C571.091 186.929 575.176 191.641 580.359 195.097C585.543 198.553 591.512 200.281 598.267 200.281Z" fill="#1C1C33"/>
<path d="M514.496 209.468C514.496 213.552 513.082 217.008 510.255 219.835C507.584 222.506 504.207 223.841 500.123 223.841C496.196 223.841 492.897 222.506 490.227 219.835C487.556 217.008 486.221 213.552 486.221 209.468V63.8527C486.221 59.7686 487.556 56.3913 490.227 53.7209C493.054 50.8935 496.51 49.4797 500.594 49.4797C504.678 49.4797 507.977 50.8935 510.49 53.7209C513.161 56.3913 514.496 59.7686 514.496 63.8527V209.468Z" fill="#1C1C33"/>
<path d="M408.973 226.2C395.621 226.2 383.997 223.451 374.101 217.953C364.362 212.298 356.822 204.679 351.481 195.097C346.297 185.515 343.706 174.677 343.706 162.581C343.706 148.444 346.533 136.427 352.188 126.531C358 116.478 365.54 108.781 374.808 103.44C384.076 98.0991 393.893 95.4287 404.261 95.4287C412.272 95.4287 419.812 97.0781 426.881 100.377C434.106 103.676 440.468 108.231 445.966 114.043C451.464 119.698 455.784 126.295 458.925 133.835C462.224 141.375 463.873 149.386 463.873 157.869C463.716 161.639 462.224 164.702 459.397 167.058C456.569 169.414 453.27 170.592 449.5 170.592H359.492L352.424 147.03H438.897L433.714 151.743V145.381C433.399 140.825 431.75 136.741 428.766 133.128C425.938 129.516 422.325 126.688 417.927 124.646C413.686 122.447 409.13 121.347 404.261 121.347C399.548 121.347 395.15 121.976 391.066 123.232C386.982 124.489 383.447 126.609 380.463 129.594C377.478 132.579 375.122 136.584 373.394 141.611C371.666 146.637 370.802 152.999 370.802 160.696C370.802 169.179 372.53 176.405 375.986 182.374C379.599 188.186 384.154 192.662 389.652 195.804C395.307 198.789 401.276 200.281 407.559 200.281C413.372 200.281 418.005 199.81 421.461 198.867C424.917 197.925 427.666 196.825 429.708 195.569C431.907 194.155 433.871 192.977 435.599 192.034C438.426 190.62 441.097 189.914 443.61 189.914C447.066 189.914 449.893 191.092 452.092 193.448C454.448 195.804 455.627 198.553 455.627 201.695C455.627 205.936 453.427 209.784 449.029 213.24C444.945 216.696 439.212 219.759 431.829 222.43C424.446 224.943 416.827 226.2 408.973 226.2Z" fill="#1C1C33"/>
<path d="M274.706 226.2C261.354 226.2 249.73 223.451 239.833 217.953C230.094 212.298 222.554 204.679 217.214 195.097C212.03 185.515 209.438 174.677 209.438 162.581C209.438 148.444 212.265 136.427 217.92 126.531C223.732 116.478 231.272 108.781 240.54 103.44C249.808 98.0991 259.626 95.4287 269.993 95.4287C278.004 95.4287 285.544 97.0781 292.613 100.377C299.839 103.676 306.201 108.231 311.698 114.043C317.196 119.698 321.516 126.295 324.658 133.835C327.956 141.375 329.606 149.386 329.606 157.869C329.449 161.639 327.956 164.702 325.129 167.058C322.302 169.414 319.003 170.592 315.233 170.592H225.225L218.156 147.03H304.63L299.446 151.743V145.381C299.132 140.825 297.483 136.741 294.498 133.128C291.671 129.516 288.058 126.688 283.659 124.646C279.418 122.447 274.863 121.347 269.993 121.347C265.281 121.347 260.882 121.976 256.798 123.232C252.714 124.489 249.18 126.609 246.195 129.594C243.211 132.579 240.854 136.584 239.127 141.611C237.399 146.637 236.535 152.999 236.535 160.696C236.535 169.179 238.263 176.405 241.718 182.374C245.331 188.186 249.887 192.662 255.385 195.804C261.039 198.789 267.009 200.281 273.292 200.281C279.104 200.281 283.738 199.81 287.194 198.867C290.649 197.925 293.398 196.825 295.44 195.569C297.64 194.155 299.603 192.977 301.331 192.034C304.159 190.62 306.829 189.914 309.342 189.914C312.798 189.914 315.626 191.092 317.825 193.448C320.181 195.804 321.359 198.553 321.359 201.695C321.359 205.936 319.16 209.784 314.762 213.24C310.677 216.696 304.944 219.759 297.561 222.43C290.178 224.943 282.56 226.2 274.706 226.2Z" fill="#1C1C33"/>
<path d="M137.305 223.843C133.221 223.843 129.844 222.508 127.174 219.838C124.503 217.01 123.168 213.554 123.168 209.47V112.158C123.168 108.074 124.503 104.697 127.174 102.026C129.844 99.1987 133.221 97.7849 137.305 97.7849C141.389 97.7849 144.767 99.1987 147.437 102.026C150.108 104.697 151.443 108.074 151.443 112.158V134.307L149.793 118.52C151.521 114.75 153.72 111.451 156.391 108.624C159.218 105.639 162.36 103.204 165.816 101.319C169.272 99.2772 172.963 97.7849 176.89 96.8424C180.817 95.9 184.744 95.4287 188.671 95.4287C193.384 95.4287 197.311 96.7639 200.452 99.4343C203.751 102.105 205.4 105.246 205.4 108.859C205.4 114.043 204.065 117.813 201.395 120.169C198.724 122.368 195.818 123.468 192.677 123.468C189.692 123.468 186.943 122.918 184.43 121.818C182.074 120.719 179.325 120.169 176.183 120.169C173.356 120.169 170.45 120.876 167.465 122.29C164.638 123.546 161.967 125.588 159.454 128.416C157.098 131.243 155.134 134.778 153.563 139.019C152.15 143.103 151.443 147.973 151.443 153.628V209.47C151.443 213.554 150.108 217.01 147.437 219.838C144.767 222.508 141.389 223.843 137.305 223.843Z" fill="#1C1C33"/>
<path d="M14.8443 223.842C10.446 223.842 6.83307 222.507 4.0056 219.837C1.3352 217.009 0 213.553 0 209.469V73.279C0 69.1949 1.3352 65.8176 4.0056 63.1472C6.83307 60.3197 10.2889 58.906 14.373 58.906H90.9506C95.0347 58.906 98.412 60.2412 101.082 62.9116C103.91 65.4249 105.324 68.7236 105.324 72.8078C105.324 76.2636 103.91 79.3267 101.082 81.9971C98.412 84.6675 95.0347 86.0027 90.9506 86.0027H27.3323L29.4529 83.1752V130.535L27.8035 127.472H80.3475C84.4317 127.472 87.8089 128.808 90.4793 131.478C93.3068 133.991 94.7205 137.29 94.7205 141.374C94.7205 144.83 93.3068 147.893 90.4793 150.563C87.8089 153.234 84.4317 154.569 80.3475 154.569H27.3323L29.4529 152.448V209.469C29.4529 213.553 27.9606 217.009 24.9761 219.837C22.1486 222.507 18.7713 223.842 14.8443 223.842Z" fill="#1C1C33"/>
<path d="M335.764 80.7851C346.939 80.7851 355.893 71.7641 355.893 60.5888L355.96 20.1963C355.96 9.021 346.939 0 335.764 0C324.589 0 315.568 9.021 315.568 20.1963V60.5888C315.568 71.7641 324.589 80.7851 335.764 80.7851ZM371.444 60.5888C371.444 80.7851 354.344 94.9224 335.764 94.9224C317.183 94.9224 300.084 80.7851 300.084 60.5888H288.639C288.639 83.5452 306.95 102.53 329.032 105.828V127.91H342.496V105.828C364.577 102.597 382.888 83.6125 382.888 60.5888H371.444Z" fill="#F4F9FE"/>
</svg>
